<svg  xmlns="http://www.w3.org/2000/svg" xmlns:svg="http://www.w3.org/2000/svg" version="1.1"  viewBox="0 0 271 169" >
<defs id="defs6">
<clipPath clipPathUnits="userSpaceOnUse" id="clipPath18"><path d="M 0,595.276 H 841.89 V 0 H 0 Z" id="path16"/>
</clipPath>
</defs>
<g id="g8" inkscape:groupmode="layer" inkscape:label="Planeta_Logotype_RGB_negativo" transform="matrix(1.3333333,0,0,-1.3333333,0,793.70133)">
<g id="g12" transform="matrix(0.71590838,0,0,0.71590838,-199.73276,318.40367)">
<g id="g14" clip-path="url(#clipPath18)">
<g id="g20" transform="translate(299.9532,234.1923)">
<path d="m 0,0 c 1.853,1.818 2.779,4.391 2.779,7.72 0,3.328 -0.926,5.918 -2.779,7.771 -1.853,1.853 -4.444,2.779 -7.771,2.779 H -11.94 V -2.728 h 4.169 c 3.327,0 5.918,0.909 7.771,2.728 m 2.779,23.52 c 2.848,-1.511 5.052,-3.628 6.614,-6.357 1.56,-2.727 2.342,-5.875 2.342,-9.443 0,-3.534 -0.782,-6.674 -2.342,-9.418 -1.562,-2.746 -3.775,-4.873 -6.639,-6.382 -2.866,-1.51 -6.185,-2.264 -9.959,-2.264 h -13.536 v 36.128 h 13.536 c 3.808,0 7.136,-0.755 9.984,-2.264" />
</g>
<g id="g24" transform="translate(324.0922,240.989)">
<path d="m 0,0 c 0.251,1.567 0.872,2.794 1.878,3.652 1.02,0.857 2.262,1.286 3.74,1.286 1.538,0 2.824,-0.443 3.859,-1.345 C 10.512,2.706 11.015,1.508 11.015,0 Z m 20.019,-2.321 c 0,2.883 -0.606,5.411 -1.818,7.57 -1.228,2.158 -2.913,3.829 -5.072,4.982 -2.158,1.168 -4.628,1.76 -7.407,1.76 -2.854,0 -5.367,-0.607 -7.57,-1.804 C -4.036,8.989 -5.751,7.274 -6.964,5.042 -8.191,2.809 -8.797,0.207 -8.797,-2.78 c 0,-2.986 0.621,-5.588 1.848,-7.821 1.242,-2.232 2.957,-3.947 5.16,-5.145 2.188,-1.212 4.687,-1.804 7.511,-1.804 2.336,0 4.435,0.429 6.328,1.287 1.892,0.857 3.46,2.04 4.702,3.548 1.123,1.345 1.936,2.853 2.439,4.524 H 9.684 c -0.887,-1.478 -2.321,-2.203 -4.273,-2.203 -1.478,0 -2.72,0.473 -3.726,1.405 -1.02,0.946 -1.596,2.306 -1.729,4.095 h 19.915 c 0.104,0.887 0.148,1.745 0.148,2.573" style="fill:#ffffff;fill-opacity:1;fill-rule:nonzero;stroke:none" id="path26"/>
</g>
<g id="g28" transform="translate(368.1377,237.0231)">
<path d="M 0,0 -4.477,13.226 -8.903,0 Z m 2.265,-6.793 h -13.484 l -2.162,-6.382 h -9.212 L -9.521,22.953 H 0.669 L 13.741,-13.175 H 4.426 Z" style="fill:#ffffff;fill-opacity:1;fill-rule:nonzero;stroke:none" id="path30"/>
</g>
<g id="g32" transform="translate(403.7782,243.4049)">
<path d="m 0,0 c -1.218,1.269 -2.702,1.904 -4.452,1.904 -1.75,0 -3.234,-0.627 -4.452,-1.878 -1.218,-1.253 -1.827,-2.978 -1.827,-5.173 0,-2.196 0.609,-3.937 1.827,-5.224 1.218,-1.286 2.702,-1.929 4.452,-1.929 1.75,0 3.234,0.634 4.452,1.904 1.217,1.269 1.827,3.002 1.827,5.198 C 1.827,-3.003 1.217,-1.27 0,0 M -1.698,8.337 C -0.172,7.514 1.004,6.433 1.827,5.095 v 4.066 h 8.801 v -28.667 c 0,-2.641 -0.524,-5.034 -1.57,-7.179 -1.047,-2.144 -2.643,-3.851 -4.786,-5.12 -2.145,-1.27 -4.812,-1.905 -8.003,-1.905 -4.255,0 -7.704,1.004 -10.345,3.011 -2.643,2.007 -4.152,4.727 -4.529,8.157 h 8.698 c 0.274,-1.097 0.926,-1.964 1.955,-2.599 1.03,-0.634 2.299,-0.952 3.809,-0.952 1.818,0 3.268,0.523 4.349,1.57 1.08,1.047 1.621,2.719 1.621,5.017 v 4.066 c -0.858,-1.338 -2.042,-2.428 -3.551,-3.268 -1.51,-0.841 -3.277,-1.26 -5.301,-1.26 -2.368,0 -4.512,0.608 -6.434,1.826 -1.922,1.218 -3.44,2.951 -4.554,5.198 -1.116,2.247 -1.673,4.846 -1.673,7.797 0,2.951 0.557,5.541 1.673,7.771 1.114,2.23 2.632,3.946 4.554,5.147 1.922,1.201 4.066,1.801 6.434,1.801 2.024,0 3.799,-0.411 5.327,-1.235" style="fill:#ffffff;fill-opacity:1;fill-rule:nonzero;stroke:none" id="path34"/>
</g>
<g id="g36" transform="translate(438.1564,232.906)">
<path d="m 0,0 c 1.184,1.235 1.776,3.001 1.776,5.301 0,2.298 -0.575,4.065 -1.724,5.3 -1.15,1.235 -2.566,1.853 -4.246,1.853 -1.716,0 -3.14,-0.609 -4.272,-1.827 -1.132,-1.218 -1.699,-2.993 -1.699,-5.326 0,-2.3 0.558,-4.066 1.673,-5.301 1.115,-1.236 2.513,-1.853 4.195,-1.853 1.68,0 3.113,0.617 4.297,1.853 m -11.889,-7.669 c -2.247,1.201 -4.014,2.916 -5.3,5.147 -1.287,2.23 -1.93,4.838 -1.93,7.823 0,2.95 0.651,5.549 1.955,7.797 1.304,2.246 3.088,3.971 5.353,5.172 2.264,1.201 4.803,1.801 7.617,1.801 2.813,0 5.352,-0.6 7.617,-1.801 C 5.687,17.069 7.471,15.344 8.775,13.098 10.079,10.85 10.731,8.251 10.731,5.301 10.731,2.35 10.07,-0.25 8.749,-2.496 7.428,-4.744 5.627,-6.468 3.345,-7.669 1.063,-8.87 -1.484,-9.47 -4.297,-9.47 c -2.814,0 -5.345,0.6 -7.592,1.801" style="fill:#ffffff;fill-opacity:1;fill-rule:nonzero;stroke:none" id="path38"/>
</g>
<g id="g40" transform="translate(458.5624,224.7227)">
<path d="M 0,0 C -1.955,0.858 -3.499,2.033 -4.632,3.525 -5.764,5.018 -6.399,6.691 -6.536,8.543 H 2.162 C 2.265,7.548 2.728,6.742 3.551,6.124 4.375,5.507 5.386,5.198 6.588,5.198 c 1.098,0 1.947,0.214 2.547,0.644 0.6,0.428 0.901,0.985 0.901,1.672 0,0.823 -0.43,1.432 -1.287,1.827 -0.858,0.394 -2.247,0.832 -4.169,1.312 -2.058,0.48 -3.774,0.986 -5.146,1.519 -1.373,0.531 -2.556,1.371 -3.551,2.521 -0.996,1.15 -1.493,2.702 -1.493,4.658 0,1.647 0.455,3.147 1.364,4.503 0.909,1.355 2.247,2.427 4.015,3.217 1.767,0.789 3.868,1.183 6.304,1.183 3.603,0 6.442,-0.892 8.518,-2.676 2.075,-1.784 3.268,-4.151 3.577,-7.102 h -8.132 c -0.137,0.995 -0.575,1.784 -1.312,2.367 -0.738,0.584 -1.708,0.875 -2.908,0.875 -1.029,0 -1.819,-0.197 -2.367,-0.591 -0.55,-0.395 -0.824,-0.936 -0.824,-1.622 0,-0.823 0.437,-1.441 1.313,-1.853 0.874,-0.411 2.238,-0.823 4.091,-1.235 2.127,-0.549 3.86,-1.089 5.198,-1.62 1.338,-0.533 2.513,-1.39 3.525,-2.574 1.012,-1.184 1.536,-2.771 1.57,-4.761 C 18.322,5.781 17.85,4.28 16.907,2.96 15.963,1.638 14.608,0.6 12.841,-0.154 11.073,-0.909 9.024,-1.286 6.691,-1.286 4.186,-1.286 1.956,-0.858 0,0" style="fill:#ffffff;fill-opacity:1;fill-rule:nonzero;stroke:none" id="path42"/>
</g>
<g id="g44" transform="translate(498.2939,231.3103)">
<path d="m 0,0 v -7.462 h -4.477 c -3.191,0 -5.679,0.78 -7.463,2.341 -1.785,1.561 -2.676,4.108 -2.676,7.643 v 11.425 h -3.5 v 7.308 h 3.5 v 6.999 h 8.801 v -6.999 h 5.764 V 13.947 H -5.815 V 2.419 c 0,-0.858 0.205,-1.476 0.617,-1.853 C -4.786,0.188 -4.1,0 -3.139,0 Z" style="fill:#ffffff;fill-opacity:1;fill-rule:nonzero;stroke:none" id="path46"/>
</g>
<path d="m 511.983,223.848 h -8.801 v 28.718 h 8.801 z m -8.157,33.066 c -0.978,0.909 -1.467,2.033 -1.467,3.371 0,1.372 0.489,2.513 1.467,3.422 0.978,0.909 2.239,1.365 3.783,1.365 1.509,0 2.753,-0.456 3.731,-1.365 0.978,-0.909 1.467,-2.05 1.467,-3.422 0,-1.338 -0.489,-2.462 -1.467,-3.371 -0.978,-0.909 -2.222,-1.364 -3.731,-1.364 -1.544,0 -2.805,0.455 -3.783,1.364" style="fill:#ffffff;fill-opacity:1;fill-rule:nonzero;stroke:none" id="path48"/>
<g id="g50" transform="translate(543.9183,249.6061)">
<path d="m 0,0 c 2.007,-2.179 3.011,-5.172 3.011,-8.981 v -16.777 h -8.75 v 15.594 c 0,1.921 -0.497,3.413 -1.492,4.477 -0.995,1.063 -2.334,1.596 -4.015,1.596 -1.681,0 -3.019,-0.533 -4.014,-1.596 -0.995,-1.064 -1.492,-2.556 -1.492,-4.477 v -15.594 h -8.801 V 2.96 h 8.801 v -3.809 c 0.891,1.269 2.092,2.272 3.602,3.011 1.51,0.737 3.208,1.106 5.095,1.106 C -4.693,3.268 -2.007,2.178 0,0" style="fill:#ffffff;fill-opacity:1;fill-rule:nonzero;stroke:none" id="path52"/></g><path d="m 561.854,223.848 h -8.801 v 28.718 h 8.801 z m -8.158,33.066 c -0.978,0.909 -1.467,2.033 -1.467,3.371 0,1.372 0.489,2.513 1.467,3.422 0.978,0.909 2.239,1.365 3.783,1.365 1.509,0 2.753,-0.456 3.731,-1.365 0.978,-0.909 1.467,-2.05 1.467,-3.422 0,-1.338 -0.489,-2.462 -1.467,-3.371 -0.978,-0.909 -2.222,-1.364 -3.731,-1.364 -1.544,0 -2.805,0.455 -3.783,1.364" style="fill:#ffffff;fill-opacity:1;fill-rule:nonzero;stroke:none" id="path54"/><g id="g56" transform="translate(335.5497,292.5302)"><path d="M 0,0 C 3.496,0 4.987,1.748 4.987,4.524 4.987,7.302 3.496,9.05 0,9.05 H -4.783 V 0 Z m 0.668,-6.994 h -5.451 v -12.958 h -8.793 V 16.146 H 0.668 c 8.845,0 13.268,-4.988 13.268,-11.622 0,-5.964 -4.063,-11.518 -13.268,-11.518" style="fill:#ffffff;fill-opacity:1;fill-rule:nonzero;stroke:none" id="path58"/></g><path d="m 354.063,310.631 h 8.794 v -38.053 h -8.794 z" style="fill:#ffffff;fill-opacity:1;fill-rule:nonzero;stroke:none" id="path60"/><g id="g62" transform="translate(382.7079,294.0215)"><path d="m 0,0 c -3.291,0 -6.273,-2.469 -6.273,-7.045 0,-4.577 2.982,-7.147 6.273,-7.147 3.343,0 6.273,2.519 6.273,7.095 C 6.273,-2.52 3.343,0 0,0 m -2.57,7.661 c 4.267,0 7.3,-1.954 8.843,-4.473 V 7.25 h 8.793 V -21.443 H 6.273 v 4.062 c -1.593,-2.519 -4.627,-4.473 -8.896,-4.473 -6.992,0 -12.598,5.758 -12.598,14.809 0,9.05 5.606,14.706 12.651,14.706" style="fill:#ffffff;fill-opacity:1;fill-rule:nonzero;stroke:none" id="path64"/></g><g id="g66" transform="translate(423.951,288.1591)"><path d="m 0,0 c 0,3.908 -2.159,6.067 -5.502,6.067 -3.343,0 -5.502,-2.159 -5.502,-6.067 v -15.581 h -8.793 v 28.693 h 8.793 V 9.308 c 1.748,2.416 4.834,4.113 8.691,4.113 6.632,0 11.055,-4.525 11.055,-12.238 V -15.581 H 0 Z" style="fill:#ffffff;fill-opacity:1;fill-rule:nonzero;stroke:none" id="path68"/></g><g id="g70" transform="translate(445.8612,289.7021)"><path d="m 0,0 h 11.004 c 0,3.137 -2.468,4.937 -5.4,4.937 C 2.725,4.937 0.514,3.188 0,0 m 5.707,-17.535 c -8.433,0 -14.501,5.656 -14.501,14.758 0,9.101 5.965,14.757 14.501,14.757 8.382,0 14.296,-5.552 14.296,-14.294 0,-0.824 -0.052,-1.698 -0.154,-2.572 H -0.052 c 0.309,-3.754 2.622,-5.502 5.451,-5.502 2.468,0 3.857,1.235 4.577,2.777 h 9.358 c -1.388,-5.605 -6.479,-9.924 -13.627,-9.924" style="fill:#ffffff;fill-opacity:1;fill-rule:nonzero;stroke:none" id="path72"/></g><g id="g74" transform="translate(471.8836,293.9697)"><path d="M 0,0 H -3.496 V 7.302 H 0 v 6.993 H 8.794 V 7.302 h 5.759 V 0 H 8.794 v -11.519 c 0,-1.697 0.72,-2.417 2.674,-2.417 h 3.136 v -7.456 H 10.131 C 4.166,-21.392 0,-18.872 0,-11.416 Z" style="fill:#ffffff;fill-opacity:1;fill-rule:nonzero;stroke:none" id="path76"/></g><g id="g78" transform="translate(504.8475,294.0215)"><path d="m 0,0 c -3.291,0 -6.273,-2.469 -6.273,-7.045 0,-4.577 2.982,-7.147 6.273,-7.147 3.342,0 6.273,2.519 6.273,7.095 C 6.273,-2.52 3.342,0 0,0 m -2.571,7.661 c 4.267,0 7.301,-1.954 8.844,-4.473 V 7.25 h 8.793 V -21.443 H 6.273 v 4.062 c -1.594,-2.519 -4.627,-4.473 -8.896,-4.473 -6.993,0 -12.599,5.758 -12.599,14.809 0,9.05 5.606,14.706 12.651,14.706" style="fill:#ffffff;fill-opacity:1;fill-rule:nonzero;stroke:none" id="path80"/></g><g id="g82" transform="translate(419.0601,357.3753)"><path d="m 0,0 -3.689,29.367 c -1.582,-0.138 -3.148,-0.329 -4.695,-0.581 l 3.69,-29.375 C -3.163,-0.288 -1.597,-0.088 0,0" style="fill:#ffffff;fill-opacity:1;fill-rule:nonzero;stroke:none" id="path84"/></g><g id="g86" transform="translate(427.5217,356.7877)"><path d="m 0,0 3.689,29.374 c -1.546,0.252 -3.112,0.444 -4.695,0.581 L -4.694,0.588 C -3.097,0.501 -1.531,0.301 0,0" style="fill:#ffffff;fill-opacity:1;fill-rule:nonzero;stroke:none" id="path88"/></g><g id="g90" transform="translate(454.2204,330.0385)"><path d="m 0,0 28.894,6.299 c -0.319,1.556 -0.712,3.083 -1.142,4.594 L -1.231,4.575 C -0.719,3.093 -0.304,1.567 0,0" style="fill:#ffffff;fill-opacity:1;fill-rule:nonzero;stroke:none" id="path92"/></g><g id="g94" transform="translate(441.7681,350.2755)"><path d="m 0,0 17.72,23.664 c -1.251,0.959 -2.54,1.87 -3.863,2.735 L -3.931,2.644 C -2.557,1.853 -1.244,0.969 0,0" style="fill:#ffffff;fill-opacity:1;fill-rule:nonzero;stroke:none" id="path96"/></g><g id="g98" transform="translate(447.3159,344.8325)"><path d="m 0,0 23.026,18.526 c -0.992,1.229 -2.031,2.418 -3.11,3.57 L -3.234,3.47 C -2.078,2.39 -0.996,1.231 0,0" style="fill:#ffffff;fill-opacity:1;fill-rule:nonzero;stroke:none" id="path100"/></g><g id="g102" transform="translate(451.5948,338.0378)"><path d="m 0,0 26.745,12.586 c -0.676,1.431 -1.411,2.828 -2.189,4.198 L -2.331,4.132 C -1.462,2.815 -0.681,1.436 0,0" style="fill:#ffffff;fill-opacity:1;fill-rule:nonzero;stroke:none" id="path104"/></g><g id="g106" transform="translate(435.1606,354.3069)"><path d="M 0,0 11.07,27.442 C 9.628,28.069 8.157,28.64 6.661,29.161 L -4.423,1.682 C -2.9,1.224 -1.424,0.659 0,0" style="fill:#ffffff;fill-opacity:1;fill-rule:nonzero;stroke:none" id="path108"/></g><g id="g110" transform="translate(387.0447,323.5426)"><path d="m 0,0 c 0,0.794 0.037,1.579 0.091,2.36 h -29.587 c -0.029,-0.784 -0.06,-1.568 -0.06,-2.36 0,-0.795 0.031,-1.583 0.06,-2.371 H 0.092 C 0.037,-1.587 0,-0.798 0,0" style="fill:#ffffff;fill-opacity:1;fill-rule:nonzero;stroke:none" id="path112"/></g><g id="g114" transform="translate(484.3457,325.9028)"><path d="m 0,0 h -29.587 c 0.054,-0.781 0.091,-1.566 0.091,-2.36 0,-0.798 -0.037,-1.587 -0.092,-2.372 H 0 c 0.026,0.728 0.053,1.456 0.055,2.19 v 0.364 C 0.053,-1.448 0.027,-0.724 0,0" style="fill:#ffffff;fill-opacity:1;fill-rule:nonzero;stroke:none" id="path116"/></g><g id="g118" transform="translate(388.9051,334.6117)"><path d="m 0,0 -28.984,6.319 c -0.43,-1.512 -0.823,-3.039 -1.141,-4.594 l 28.894,-6.3 C -0.927,-3.008 -0.512,-1.481 0,0" style="fill:#ffffff;fill-opacity:1;fill-rule:nonzero;stroke:none" id="path120"/></g><g id="g122" transform="translate(392.6291,342.1676)"><path d="m 0,0 -26.889,12.653 c -0.778,-1.37 -1.513,-2.767 -2.189,-4.199 L -2.331,-4.132 C -1.65,-2.696 -0.869,-1.317 0,0" style="fill:#ffffff;fill-opacity:1;fill-rule:nonzero;stroke:none" id="path124"/></g><g id="g126" transform="translate(411.1514,355.9875)"><path d="m 0,0 -11.085,27.481 c -1.495,-0.521 -2.966,-1.092 -4.408,-1.72 L -4.423,-1.683 C -2.999,-1.024 -1.523,-0.459 0,0" style="fill:#ffffff;fill-opacity:1;fill-rule:nonzero;stroke:none" id="path128"/></g><g id="g130" transform="translate(404.0525,352.917)"><path d="m 0,0 -17.789,23.757 c -1.323,-0.865 -2.612,-1.776 -3.864,-2.734 L -3.93,-2.645 C -2.686,-1.675 -1.374,-0.791 0,0" style="fill:#ffffff;fill-opacity:1;fill-rule:nonzero;stroke:none" id="path132"/></g><g id="g134" transform="translate(397.8099,348.2997)"><path d="m 0,0 -23.153,18.628 c -1.079,-1.151 -2.118,-2.34 -3.11,-3.57 L -3.234,-3.47 C -2.238,-2.239 -1.156,-1.08 0,0"/>
</g>
</g>
</g>
</g>
</svg>