<?xml version="1.0" standalone="no"?>
<!DOCTYPE svg PUBLIC "-//W3C//DTD SVG 1.0//EN" "http://www.w3.org/TR/2001/REC-SVG-20010904/DTD/svg10.dtd">
<svg xmlns="http://www.w3.org/2000/svg" xmlns:xlink="http://www.w3.org/1999/xlink" id="body_1" width="221" height="47">

<defs>
    <clipPath  id="1">

    <path id=""  clip-rule="evenodd" transform="matrix(1 0 0 1 0 0)"  d="M0 35L0 -0.25L0 -0.25L166.5 -0.25L166.5 -0.25L166.5 35L166.5 35L0 35z" />    </clipPath>
    <clipPath  id="2">

    <path id=""  clip-rule="evenodd" transform="matrix(1 0 0 1 0 0)"  d="M0 -0.25L166.5 -0.25L166.5 -0.25L166.5 35L166.5 35L0 35z" />    </clipPath>
    <clipPath  id="3">

    <path id=""  clip-rule="evenodd" transform="matrix(1 0 0 1 0 0)"  d="M0 -0.25L166.5 -0.25L166.5 -0.25L166.5 35L166.5 35L0 35z" />    </clipPath>
    <clipPath  id="4">

    <path id=""  clip-rule="evenodd" transform="matrix(1 0 0 1 0 0)"  d="M0 0.82596207L166.5 0.82596207L166.5 0.82596207L166.5 33.82596L166.5 33.82596L0 33.82596z" />    </clipPath>
</defs>

<g transform="matrix(1.3333 0 0 1.3333 0 0)">
	<g clip-path="url(#1)" >
		<g clip-path="url(#2)" >
    <path id=""  transform="matrix(1 0 0 -1 0 35)"  d="M0 35.25L166.5 35.25L166.5 35.25L166.5 0L166.5 0L0 0z" stroke="none" fill="#FFFFFF" fill-rule="nonzero" />
		</g>
		<g clip-path="url(#3)" >
    <path id=""  transform="matrix(1 0 0 -1 0 35)"  d="M0 35.25L166.5 35.25L166.5 35.25L166.5 0L166.5 0L0 0z" stroke="none" fill="#FFFFFF" fill-rule="nonzero" />
		</g>
		<g clip-path="url(#4)" >
    <path id=""  transform="matrix(1 0 0 -1 0 35)"  d="M0.017578125 34.174038L166.48242 34.174038L166.48242 34.174038L166.48242 1.1740379L166.48242 1.1740379L0.017578125 1.1740379z" stroke="none" fill="#FFFFFF" fill-rule="nonzero" />
    <path id=""  transform="matrix(1 0 0 -1 0 35)"  d="M0.017578125 34.174038L166.48242 34.174038L166.48242 34.174038L166.48242 1.1740379L166.48242 1.1740379L0.017578125 1.1740379z" stroke="none" fill="#FFFFFF" fill-rule="nonzero" />
    <path id=""  transform="matrix(1 0 0 -1 0 35)"  d="M32.57793 2.549038L0.4164002 2.549038L0.4164002 2.549038L0.4164002 32.85919L0.4164002 32.85919L16.455982 32.85919C 16.98052 32.88927 17.531067 32.88927 18.098955 32.85919L18.098955 32.85919L32.57793 32.85919L32.57793 32.85919L32.57793 2.549038zM27.688025 4.1818504L30.926285 4.1818504L30.926285 4.1818504L30.926285 31.226381L30.926285 31.226381L23.03221 31.226381L23.03221 31.226381L30.5318 18.8256L30.5318 18.8256L26.1751 15.938101L26.1751 15.938101L25.706919 16.578335C 25.238737 17.222866 24.93962 17.51935 24.298037 17.97482C 23.88621 18.267006 23.426697 18.348648 22.89349 18.434586C 22.568363 18.490444 22.217226 18.546303 21.866089 18.66232C 22.260576 18.073647 22.741764 17.454897 23.283642 16.767397C 23.556747 16.415052 23.847195 16.049818 24.128971 15.671694C 24.276361 15.478334 24.419416 15.29357 24.558138 15.104506C 26.465548 12.603725 27.974136 10.622866 28.069506 7.1338024C 28.095516 6.0380993 27.92645 5.268959 27.744379 4.452553C 27.72704 4.362318 27.705364 4.2763805 27.688025 4.1818504M25.438147 4.1818504L26.0017 4.1818504C 26.049385 4.405287 26.092735 4.611538 26.136086 4.8048973C 26.313822 5.5869274 26.448208 6.1970844 26.426533 7.0908337C 26.339832 10.055677 25.108686 11.6756 23.240292 14.120522C 23.105906 14.305288 22.958515 14.498648 22.80679 14.692007C 22.538017 15.057241 22.251905 15.413881 21.983135 15.761929C 21.01209 17.003725 20.08873 18.172476 19.546852 19.448647C 18.90527 20.943958 18.892263 22.392006 19.512173 23.85724L19.512173 23.85724L21.02943 23.225601C 21.016424 23.182632 20.999084 23.135365 20.97741 23.092396L20.97741 23.092396L21.04677 23.058022C 20.591593 22.202944 20.79534 21.584194 21.87476 20.51427C 22.165205 20.226381 22.538017 20.149036 23.166595 20.045914C 23.78217 19.942787 24.545134 19.818178 25.260412 19.302553C 25.806623 18.911537 26.183771 18.584976 26.552248 18.155287L26.552248 18.155287L28.316603 19.324038L28.316603 19.324038L21.11613 31.226381L21.11613 31.226381L21.111795 31.226381L21.111795 31.226381L20.470213 28.377554L20.470213 28.377554L19.711584 28.497868C 16.941504 28.93185 14.947394 28.652554 13.620878 27.647083C 11.713468 26.19474 11.1976 23.247086 10.816118 19.800991C 11.037204 19.689272 11.253955 19.573256 11.488048 19.457241C 13.651222 18.348648 16.343271 16.973646 19.325766 14.674818C 23.227285 11.667006 24.65351 8.281069 25.438147 4.1818504M23.626108 4.1818504L23.760494 4.1818504C 23.03221 7.782631 21.714363 10.760366 18.31137 13.385756C 15.454592 15.594351 12.836238 16.926382 10.733752 18.004896C 8.726638 19.027554 7.1400194 19.839663 6.1386294 20.991226C 4.066489 23.3631 3.1908143 24.712318 2.0637085 27.127163L2.0637085 27.127163L2.0637085 23.47482C 2.1850893 23.26427 2.3064697 23.062317 2.4191809 22.860367C 3.593971 20.853725 4.5129952 19.272476 6.944944 17.579506C 8.423186 16.552553 9.936109 15.955288 11.544402 15.327944C 14.0197 14.35685 16.828794 13.256849 20.227451 10.326382C 21.98747 8.809584 23.270636 6.4634895 23.626108 4.1818504M20.17543 4.1818504L20.210112 4.1818504C 18.870588 7.082241 17.166925 8.143568 11.730807 9.94396C 11.331986 10.072866 10.924494 10.201773 10.530006 10.326382C 8.505552 10.958021 6.407401 11.615444 4.23122 13.23107C 4.0838294 13.342787 3.9451087 13.445913 3.8107226 13.544741C 3.1561341 14.030287 2.5925817 14.447084 2.0637085 14.954115L2.0637085 14.954115L2.0637085 13.024818C 3.5159411 11.4006 7.742588 9.024427 10.824788 8.491615C 14.093395 7.9287243 16.06583 7.3873177 17.431362 6.6783333C 18.792559 5.969349 19.429808 5.14435 20.171095 4.186146L20.171095 4.186146L20.17543 4.1818504zM2.0637085 4.1818504L12.827568 4.1818504C 12.528453 4.2119274 12.233671 4.233412 11.943224 4.2591934C 11.297307 4.315052 10.681732 4.362318 10.148524 4.426771C 9.866748 4.4654427 9.589307 4.4912243 9.3292055 4.5256004C 6.641492 4.830677 4.747087 5.049818 2.0637085 6.811537L2.0637085 6.811537L2.0637085 4.1818504zM2.0637085 17.570913C 2.852683 16.286146 3.598307 15.740444 4.790437 14.859585C 4.929158 14.75646 5.0722146 14.649038 5.2239394 14.541616C 7.166029 13.084974 9.043096 12.500601 11.028534 11.881849C 11.423021 11.752943 11.843518 11.628334 12.251012 11.490835C 18.081615 9.561537 20.23612 8.31974 21.91811 4.379505C 21.527958 6.141224 20.496222 7.937319 19.152365 9.093178C 15.961789 11.843178 13.404126 12.840054 10.937499 13.811148C 9.242505 14.472866 7.642882 15.104506 5.9999084 16.243177C 4.057819 17.5881 2.969728 18.890053 2.0637085 20.277943L2.0637085 20.277943L2.0637085 17.570913zM2.0637085 8.813881C 4.937828 6.6697407 6.598142 6.4806786 9.515612 6.145521C 9.780047 6.115444 10.057489 6.0853653 10.347936 6.050991C 10.850799 5.9908333 11.449031 5.939272 12.081944 5.8877087C 13.781273 5.7459126 15.428581 5.608412 16.651058 5.234585C 15.528288 5.827553 13.772603 6.3259907 10.543012 6.8845844C 7.894313 7.344349 4.287575 9.067396 2.0637085 10.816225L2.0637085 10.816225L2.0637085 8.813881zM8.267125 21.274818C 8.561907 21.064272 8.891368 20.853725 9.25551 20.643177C 9.684677 24.188099 10.347936 27.2131 12.623822 28.940443C 14.18443 30.130678 16.338936 30.556068 19.195715 30.216616L19.195715 30.216616L19.421137 31.226381L19.421137 31.226381L16.460318 31.226381C 13.815953 31.071693 11.847854 30.117788 10.482323 28.321693C 9.251176 26.697475 8.505552 24.329897 8.267125 21.274818M2.0637085 31.204897L2.072379 31.179115C 4.0101333 26.706068 4.582356 25.374039 6.767207 22.77443C 7.135685 25.515835 7.928993 27.664272 9.173144 29.30568C 9.749702 30.066225 10.421631 30.706459 11.18893 31.226381L11.18893 31.226381L2.0637085 31.226381L2.0637085 31.226381L2.0637085 31.204897z" stroke="none" fill="#004983" fill-rule="nonzero" />
    <path id=""  transform="matrix(1 0 0 -1 0 35)"  d="M49.761955 5.75021C 50.373196 5.75021 50.9801 5.83185 51.573994 5.9951305C 52.17223 6.158413 52.705437 6.4033337 53.169285 6.734194C 53.637466 7.0607567 54.010277 7.4646626 54.29639 7.937319C 54.578167 8.409975 54.721222 8.959974 54.721222 9.578726C 54.721222 10.330679 54.526146 10.996695 54.135994 11.576773C 53.745842 12.156851 53.23431 12.689663 52.605732 13.183804C 51.972816 13.673647 51.248867 14.133413 50.433884 14.563101C 49.6189 14.988491 48.786575 15.422476 47.945583 15.856459C 47.100254 16.286146 46.26793 16.741615 45.452946 17.214272C 44.63796 17.691225 43.914013 18.219742 43.285435 18.799818C 42.65252 19.379898 42.140987 20.028725 41.750835 20.750599C 41.360683 21.468178 41.165607 22.297474 41.165607 23.234192C 41.165607 24.175209 41.34334 25.043179 41.698814 25.846693C 42.054287 26.645912 42.570156 27.342007 43.25509 27.92638C 43.94002 28.515053 44.78535 28.97482 45.782406 29.30568C 46.77946 29.640835 47.92824 29.808413 49.22875 29.808413C 51.565327 29.808413 53.412045 29.322866 54.764572 28.351772C 56.1171 27.37638 57.096813 25.971302 57.699383 24.13224L57.699383 24.13224L55.570885 23.165443C 55.32379 23.913101 55.00733 24.600601 54.621517 25.223648C 54.240036 25.842396 53.78052 26.37521 53.242977 26.822084C 52.705437 27.264664 52.08553 27.608414 51.391926 27.849037C 50.693985 28.089663 49.909348 28.209976 49.033672 28.209976C 48.25337 28.209976 47.57277 28.102554 46.98754 27.883413C 46.402313 27.668568 45.91679 27.384975 45.53531 27.041225C 45.149494 26.693178 44.859047 26.302162 44.66397 25.86388C 44.468895 25.4256 44.373524 24.974428 44.373524 24.518959C 44.373524 23.874428 44.572933 23.285755 44.976093 22.752943C 45.37925 22.22013 45.903786 21.7131 46.55404 21.23185C 47.204292 20.750599 47.945583 20.290834 48.786575 19.852554C 49.623234 19.414272 50.477234 18.9631 51.34424 18.50763C 52.21558 18.052162 53.065243 17.575209 53.90624 17.085365C 54.742897 16.591225 55.48852 16.054115 56.138775 15.46974C 56.78903 14.881069 57.313564 14.240835 57.71672 13.544741C 58.115543 12.844351 58.31929 12.070913 58.31929 11.215834C 58.31929 10.240444 58.132885 9.329506 57.76007 8.483023C 57.38726 7.6322403 56.82804 6.8888817 56.086754 6.248646C 55.34113 5.612709 54.41777 5.1056786 53.31234 4.740444C 52.20691 4.3709126 50.92374 4.186146 49.458504 4.186146C 48.279377 4.186146 47.221634 4.315052 46.285267 4.5728645C 45.353237 4.830677 44.529583 5.204506 43.814304 5.6943493C 43.099026 6.18849 42.48779 6.7900524 41.98059 7.5076313C 41.473392 8.220913 41.0529 9.028725 40.723434 9.931068L40.723434 9.931068L42.95597 10.846304C 43.216072 10.047085 43.562874 9.333803 44.000713 8.702162C 44.43855 8.070522 44.95008 7.533413 45.53531 7.095131C 46.120537 6.6525536 46.766457 6.3216934 47.481735 6.09396C 48.197014 5.861927 48.955643 5.75021 49.761955 5.75021" stroke="none" fill="#004983" fill-rule="nonzero" />
    <path id=""  transform="matrix(1 0 0 -1 0 35)"  d="M72.89797 29.808413L84.5245 4.766224L84.5245 4.766224L80.30652 4.766224L80.30652 4.766224L76.530716 12.938881L76.530716 12.938881L65.95326 12.938881L65.95326 12.938881L62.05608 4.766224L62.05608 4.766224L59.98394 4.766224L59.98394 4.766224L71.87057 29.808413L71.87057 29.808413L72.89797 29.808413zM66.68155 14.520132L75.77209 14.520132L75.77209 14.520132L71.28534 24.20099L71.28534 24.20099L66.68155 14.520132z" stroke="none" fill="#004983" fill-rule="nonzero" />
    <path id=""  transform="matrix(1 0 0 -1 0 35)"  d="M88.23094 29.245522L92.37522 29.245522L92.37522 29.245522L92.37522 6.347475L92.37522 6.347475L104.79939 6.347475L104.79939 6.347475L104.79939 4.766224L104.79939 4.766224L88.23094 4.766224L88.23094 4.766224L88.23094 29.245522z" stroke="none" fill="#004983" fill-rule="nonzero" />
    <path id=""  transform="matrix(1 0 0 -1 0 35)"  d="M104.25318 29.245522L113.5518 9.776381L113.5518 9.776381L122.217514 29.245522L122.217514 29.245522L124.185616 29.245522L124.185616 29.245522L112.966576 4.186146L112.966576 4.186146L111.904495 4.186146L111.904495 4.186146L99.87481 29.245522L99.87481 29.245522L104.25318 29.245522z" stroke="none" fill="#004983" fill-rule="nonzero" />
    <path id=""  transform="matrix(1 0 0 -1 0 35)"  d="M134.13882 29.808413L145.76102 4.766224L145.76102 4.766224L141.54305 4.766224L141.54305 4.766224L137.77158 12.938881L137.77158 12.938881L127.19412 12.938881L127.19412 12.938881L123.2926 4.766224L123.2926 4.766224L121.22046 4.766224L121.22046 4.766224L133.11142 29.808413L133.11142 29.808413L134.13882 29.808413zM127.91807 14.520132L137.0086 14.520132L137.0086 14.520132L132.5262 24.20099L132.5262 24.20099L127.91807 14.520132z" stroke="none" fill="#004983" fill-rule="nonzero" />
    <path id=""  transform="matrix(1 0 0 -1 0 35)"  d="M165.4767 29.245522L165.4767 27.664272L165.4767 27.664272L156.54655 27.664272L156.54655 27.664272L156.54655 4.766224L156.54655 4.766224L152.40227 4.766224L152.40227 4.766224L152.40227 27.664272L152.40227 27.664272L143.45479 27.664272L143.45479 27.664272L143.45479 29.245522L143.45479 29.245522L165.4767 29.245522z" stroke="none" fill="#004983" fill-rule="nonzero" />
		</g>
	</g>
</g>
</svg>